<svg width="30" height="31" viewBox="0 0 30 31" fill="none" xmlns="http://www.w3.org/2000/svg">
<path d="M29.3687 9.74044C28.9427 4.55658 25.6217 0.795898 21.4677 0.795898C18.6987 0.795898 16.1647 2.44249 14.7387 5.0816C13.3257 2.40778 10.8947 0.795898 8.17168 0.795898C4.01768 0.795898 0.696678 4.55658 0.270678 9.74044C0.237678 9.9704 0.0996782 11.1745 0.520678 13.14C1.12468 15.9743 2.52269 18.5527 4.56169 20.5941L14.7327 30.7959L25.0787 20.5952C27.1187 18.5527 28.5147 15.9743 29.1207 13.14C29.5407 11.1745 29.4027 9.9704 29.3687 9.74044ZM28.0267 12.8558C27.4737 15.4439 26.1937 17.8042 24.3267 19.6732L14.7387 29.1255L5.31462 19.6743C3.44562 17.8021 2.16574 15.4439 1.61174 12.8547C1.21474 10.9955 1.37771 9.94438 1.37871 9.93787L1.38665 9.87603C1.75265 5.33324 4.60568 2.03574 8.17168 2.03574C10.8037 2.03574 13.1197 3.82442 14.2197 6.70001L14.7377 8.05372L15.2537 6.70001C16.3357 3.86889 18.7747 2.0368 21.4687 2.0368C25.0357 2.0368 27.8887 5.33322 28.2597 9.9335C28.2607 9.94435 28.4237 10.9955 28.0267 12.8558Z" fill="white"/>
<path d="M9.20483 4.56641C6.10783 4.56641 3.59082 7.35088 3.59082 10.7721C3.59082 11.1159 3.84086 11.3926 4.15186 11.3926C4.46386 11.3926 4.71484 11.1159 4.71484 10.7721C4.71484 8.03426 6.72993 5.80737 9.20593 5.80737C9.51793 5.80737 9.76892 5.52857 9.76892 5.18689C9.76892 4.8452 9.51583 4.56641 9.20483 4.56641Z" fill="white"/>
</svg>
