<svg width="22" height="7" viewBox="0 0 22 7" fill="none" xmlns="http://www.w3.org/2000/svg">
<path d="M0.345703 3.39392C0.345703 2.59392 0.626696 1.91291 1.1917 1.34991C1.7547 0.785915 2.43671 0.50293 3.23671 0.50293C4.03571 0.50293 4.71672 0.784915 5.28172 1.34991C5.84472 1.91291 6.1277 2.59392 6.1277 3.39392C6.1277 4.19392 5.84572 4.87494 5.28172 5.43994C4.71772 6.00294 4.03571 6.28491 3.23671 6.28491C2.43671 6.28491 1.7557 6.00294 1.1917 5.43994C0.626696 4.87494 0.345703 4.19392 0.345703 3.39392ZM0.923706 3.39392C0.923706 4.03092 1.1497 4.57494 1.6017 5.02594C2.0527 5.47694 2.59771 5.70294 3.23671 5.70294C3.87471 5.70294 4.41972 5.47694 4.87172 5.02594C5.32272 4.57494 5.5497 4.03092 5.5497 3.39392C5.5497 2.75692 5.32272 2.21296 4.87172 1.76196C4.41972 1.31096 3.87471 1.08496 3.23671 1.08496C2.59771 1.08496 2.0527 1.31096 1.6017 1.76196C1.1487 2.21296 0.923706 2.75692 0.923706 3.39392Z" fill="#D09BB8"/>
<path d="M8.27344 3.39392C8.27344 2.59392 8.55545 1.91291 9.11945 1.34991C9.68245 0.785915 10.3645 0.50293 11.1645 0.50293C11.9645 0.50293 12.6454 0.784915 13.2094 1.34991C13.7724 1.91291 14.0555 2.59392 14.0555 3.39392C14.0555 4.19392 13.7734 4.87494 13.2094 5.43994C12.6464 6.00294 11.9645 6.28491 11.1645 6.28491C10.3645 6.28491 9.68345 6.00294 9.11945 5.43994C8.55645 4.87494 8.27344 4.19392 8.27344 3.39392ZM8.85245 3.39392C8.85245 4.03092 9.07846 4.57494 9.53046 5.02594C9.98246 5.47694 10.5274 5.70294 11.1654 5.70294C11.8034 5.70294 12.3484 5.47694 12.8004 5.02594C13.2524 4.57494 13.4785 4.03092 13.4785 3.39392C13.4785 2.75692 13.2524 2.21296 12.8004 1.76196C12.3484 1.31096 11.8034 1.08496 11.1654 1.08496C10.5274 1.08496 9.98246 1.31096 9.53046 1.76196C9.07846 2.21296 8.85245 2.75692 8.85245 3.39392Z" fill="#D09BB8"/>
<path d="M16.2031 3.39392C16.2031 2.59392 16.4851 1.91291 17.0491 1.34991C17.6131 0.785915 18.2951 0.50293 19.0941 0.50293C19.8941 0.50293 20.5751 0.784915 21.1391 1.34991C21.7031 1.91291 21.9851 2.59392 21.9851 3.39392C21.9851 4.19392 21.7041 4.87494 21.1391 5.43994C20.5761 6.00294 19.8941 6.28491 19.0941 6.28491C18.2951 6.28491 17.6141 6.00294 17.0491 5.43994C16.4851 4.87494 16.2031 4.19392 16.2031 3.39392ZM16.7811 3.39392C16.7811 4.03092 17.0081 4.57494 17.4591 5.02594C17.9111 5.47694 18.4561 5.70294 19.0941 5.70294C19.7331 5.70294 20.2781 5.47694 20.7291 5.02594C21.1811 4.57494 21.4071 4.03092 21.4071 3.39392C21.4071 2.75692 21.1811 2.21296 20.7291 1.76196C20.2781 1.31096 19.7331 1.08496 19.0941 1.08496C18.4561 1.08496 17.9111 1.31096 17.4591 1.76196C17.0081 2.21296 16.7811 2.75692 16.7811 3.39392Z" fill="#D09BB8"/>
</svg>
