<svg width="20" height="21" viewBox="0 0 20 21" fill="none" xmlns="http://www.w3.org/2000/svg">
<path d="M18.376 8.35081H16.58C16.291 8.35081 16.054 8.19081 15.943 7.92581C15.834 7.65781 15.889 7.37681 16.092 7.17381L17.363 5.90281C17.549 5.71681 17.651 5.46881 17.651 5.20481C17.651 4.94081 17.548 4.69281 17.363 4.50481L15.743 2.88481C15.37 2.51181 14.719 2.51181 14.346 2.88481L13.075 4.15581C12.872 4.35881 12.591 4.41681 12.325 4.30481C12.058 4.19381 11.898 3.95581 11.898 3.66781V1.87081C11.898 1.32581 11.456 0.882812 10.911 0.882812H8.621C8.076 0.882812 7.634 1.32581 7.634 1.87081V3.66781C7.634 3.95581 7.47401 4.19381 7.20901 4.30481C6.94101 4.41581 6.66 4.35881 6.457 4.15581L5.186 2.88481C4.813 2.51181 4.162 2.51181 3.789 2.88481L2.16901 4.50481C1.98301 4.69081 1.88 4.94081 1.88 5.20481C1.88 5.46881 1.98301 5.71681 2.16901 5.90281L3.44 7.17381C3.643 7.37681 3.69899 7.65781 3.58899 7.92581C3.47999 8.19081 3.24 8.35081 2.952 8.35081H1.155C0.609999 8.35081 0.166992 8.79281 0.166992 9.33781V11.6278C0.166992 12.1728 0.609999 12.6148 1.155 12.6148H2.952C3.24 12.6148 3.47799 12.7748 3.58899 13.0418C3.69999 13.3078 3.643 13.5888 3.44 13.7918L2.16901 15.0628C1.98301 15.2488 1.88 15.4988 1.88 15.7608C1.88 16.0258 1.98301 16.2748 2.16901 16.4598L3.789 18.0798C4.162 18.4528 4.813 18.4528 5.186 18.0798L6.457 16.8088C6.66 16.6058 6.94101 16.5498 7.20901 16.6598C7.47401 16.7708 7.634 17.0088 7.634 17.2968V19.0938C7.634 19.6378 8.076 20.0808 8.621 20.0808H10.911C11.456 20.0808 11.898 19.6378 11.898 19.0938V17.2968C11.898 17.0078 12.058 16.7708 12.323 16.6598C12.591 16.5488 12.872 16.6058 13.075 16.8088L14.346 18.0798C14.719 18.4528 15.37 18.4528 15.743 18.0798L17.363 16.4598C17.549 16.2738 17.651 16.0258 17.651 15.7608C17.651 15.4988 17.548 15.2498 17.363 15.0628L16.092 13.7918C15.889 13.5888 15.833 13.3078 15.943 13.0418C16.052 12.7748 16.292 12.6148 16.58 12.6148H18.376C18.921 12.6148 19.364 12.1728 19.364 11.6278V9.33781C19.364 8.79281 18.921 8.35081 18.376 8.35081ZM18.654 11.6278C18.654 11.7808 18.529 11.9048 18.376 11.9048H16.58C16.003 11.9048 15.507 12.2368 15.287 12.7698C15.065 13.3028 15.181 13.8878 15.591 14.2958L16.86 15.5658C16.969 15.6738 16.969 15.8488 16.86 15.9588L15.242 17.5768C15.133 17.6848 14.957 17.6868 14.849 17.5768L13.578 16.3078C13.17 15.8978 12.585 15.7838 12.052 16.0038C11.519 16.2248 11.187 16.7208 11.187 17.2968V19.0938C11.187 19.2458 11.062 19.3718 10.91 19.3718H8.62C8.46799 19.3718 8.34201 19.2468 8.34201 19.0938V17.2968C8.34201 16.7208 8.012 16.2238 7.478 16.0038C7.299 15.9288 7.11501 15.8928 6.93301 15.8928C6.57401 15.8928 6.223 16.0358 5.953 16.3058L4.68301 17.5768C4.57401 17.6868 4.398 17.6848 4.289 17.5768L2.67099 15.9588C2.56399 15.8498 2.56399 15.6738 2.67099 15.5648L3.94199 14.2958C4.34999 13.8878 4.46599 13.3018 4.24399 12.7698C4.02399 12.2368 3.52899 11.9048 2.95099 11.9048H1.15399C1.00099 11.9048 0.877991 11.7798 0.877991 11.6278V9.33781C0.877991 9.18581 1.00099 9.06081 1.15399 9.06081H2.95099C3.52899 9.06081 4.02399 8.73081 4.24399 8.19581C4.46599 7.66281 4.34999 7.07781 3.94199 6.67081L2.67099 5.40081C2.56399 5.29181 2.56399 5.11581 2.67099 5.00681L4.289 3.38881C4.398 3.28181 4.57401 3.28181 4.68301 3.38881L5.953 4.65781C6.361 5.06581 6.946 5.18381 7.478 4.96181C8.013 4.74181 8.34201 4.24681 8.34201 3.66881V1.87181C8.34201 1.71881 8.467 1.59581 8.62 1.59581H10.91C11.062 1.59581 11.187 1.71881 11.187 1.87181V3.66881C11.187 4.24681 11.519 4.74181 12.052 4.96181C12.585 5.18381 13.17 5.06781 13.578 4.65981L14.849 3.38881C14.957 3.28181 15.134 3.28181 15.242 3.38881L16.86 5.00881C16.969 5.11581 16.969 5.29381 16.86 5.40081L15.591 6.67081C15.183 7.07781 15.065 7.66381 15.287 8.19781C15.508 8.73081 16.004 9.06181 16.58 9.06181H18.376C18.529 9.06081 18.654 9.18581 18.654 9.33781V11.6278Z" fill="#8D99B2"/>
<path d="M9.7674 7.28271C8.00139 7.28271 6.56641 8.71871 6.56641 10.4837C6.56641 12.2477 8.0024 13.6827 9.7674 13.6827C11.5314 13.6827 12.9664 12.2467 12.9664 10.4837C12.9664 8.71771 11.5304 7.28271 9.7674 7.28271ZM9.7674 12.9707C8.39439 12.9707 7.27841 11.8547 7.27841 10.4837C7.27841 9.11071 8.39439 7.99472 9.7674 7.99472C11.1384 7.99472 12.2544 9.11071 12.2544 10.4837C12.2544 11.8547 11.1384 12.9707 9.7674 12.9707Z" fill="#8D99B2"/>
</svg>
