<svg width="9" height="31" viewBox="0 0 9 31" fill="none" xmlns="http://www.w3.org/2000/svg">
<path d="M4.52007 0.47998C5.62937 0.47998 6.57516 0.869676 7.35548 1.65196C8.13777 2.43327 8.5274 3.37906 8.5274 4.48737C8.5274 5.59374 8.13777 6.53955 7.35548 7.32183C6.57516 8.10314 5.62937 8.49572 4.52007 8.49572C3.41077 8.49572 2.46498 8.10412 1.68466 7.32183C0.903349 6.54053 0.511719 5.59471 0.511719 4.48737C0.511719 3.37808 0.903349 2.43327 1.68466 1.65196C2.46596 0.869676 3.41175 0.47998 4.52007 0.47998ZM4.52007 1.28086C3.63792 1.28086 2.88305 1.59419 2.2584 2.2208C1.63178 2.84643 1.31941 3.60131 1.31941 4.48737C1.31941 5.37051 1.63178 6.12638 2.2584 6.75299C2.88305 7.37862 3.63694 7.69287 4.52007 7.69287C5.4032 7.69287 6.15707 7.37862 6.7827 6.75299C7.40833 6.12638 7.72067 5.37051 7.72067 4.48737C7.72067 3.60131 7.40833 2.84643 6.7827 2.2208C6.15707 1.59419 5.4032 1.28086 4.52007 1.28086Z" fill="white"/>
<path d="M4.52007 11.4722C5.62937 11.4722 6.57516 11.8628 7.35548 12.6441C8.13777 13.4255 8.5274 14.3712 8.5274 15.4796C8.5274 16.5879 8.13777 17.5327 7.35548 18.314C6.57516 19.0953 5.62937 19.486 4.52007 19.486C3.41077 19.486 2.46498 19.0953 1.68466 18.314C0.903349 17.5327 0.511719 16.5889 0.511719 15.4796C0.511719 14.3703 0.903349 13.4245 1.68466 12.6441C2.46596 11.8628 3.41175 11.4722 4.52007 11.4722ZM4.52007 12.2731C3.63792 12.2731 2.88305 12.5854 2.2584 13.212C1.63178 13.8396 1.31941 14.5945 1.31941 15.4786C1.31941 16.3617 1.63178 17.1176 2.2584 17.7442C2.88305 18.3708 3.63694 18.6841 4.52007 18.6841C5.4032 18.6841 6.15707 18.3708 6.7827 17.7442C7.40833 17.1176 7.72067 16.3617 7.72067 15.4786C7.72067 14.5945 7.40833 13.8386 6.7827 13.212C6.15707 12.5864 5.4032 12.2731 4.52007 12.2731Z" fill="white"/>
<path d="M4.52007 22.4644C5.62937 22.4644 6.57516 22.855 7.35548 23.6363C8.13777 24.4186 8.5274 25.3634 8.5274 26.4717C8.5274 27.58 8.13777 28.5258 7.35548 29.3071C6.57516 30.0904 5.62937 30.48 4.52007 30.48C3.41077 30.48 2.46498 30.0904 1.68466 29.3071C0.903349 28.5258 0.511719 27.58 0.511719 26.4717C0.511719 25.3634 0.903349 24.4186 1.68466 23.6363C2.46596 22.855 3.41175 22.4644 4.52007 22.4644ZM4.52007 23.2652C3.63792 23.2652 2.88305 23.5785 2.2584 24.2051C1.63178 24.8317 1.31941 25.5866 1.31941 26.4707C1.31941 27.3558 1.63178 28.1117 2.2584 28.7373C2.88305 29.3639 3.63694 29.6762 4.52007 29.6762C5.4032 29.6762 6.15707 29.3639 6.7827 28.7373C7.40833 28.1107 7.72067 27.3558 7.72067 26.4707C7.72067 25.5866 7.40833 24.8317 6.7827 24.2051C6.15707 23.5785 5.4032 23.2652 4.52007 23.2652Z" fill="white"/>
</svg>
