<?xml version="1.0" encoding="utf-8"?>
<!-- Generator: Adobe Illustrator 19.0.0, SVG Export Plug-In . SVG Version: 6.00 Build 0)  -->
<svg version="1.1" id="Layer_1" xmlns="http://www.w3.org/2000/svg" xmlns:xlink="http://www.w3.org/1999/xlink" x="0px" y="0px"
	 viewBox="-552 385 175 31" style="enable-background:new -552 385 175 31;" xml:space="preserve">
<style type="text/css">
	.st0{fill:#BC66A7;}
	.st1{fill:#FAA819;}
	.st2{fill:#AE2D74;}
	.st3{fill:#F58B20;}
	.st4{fill:#FFFFFF;}
</style>
<g id="ZorroTunes_logo">
	<path class="st0" d="M-533.6,407.3c0-4.6,3.7-8.3,8.3-8.3c1.6,0,3,0.4,4.3,1.2v-12.4c0-1.5,1.2-2.6,2.6-2.6h13.9
		c0.7,0,1.3,0.6,1.3,1.3l0,0v1.3c0,2.9-2.4,5.3-5.3,5.3h-8.6v13.9h0c0,0.1,0,0.2,0,0.3c0,4.6-3.7,8.3-8.3,8.3
		C-529.9,415.5-533.6,411.8-533.6,407.3"/>
	<path class="st1" d="M-504.2,385"/>
	<path class="st2" d="M-533.6,408.4c1.2,0.7,2.7,1.2,4.2,1.2c4.6,0,8.3-3.7,8.3-8.3c0-0.4,0-0.8-0.1-1.2c2.4,1.4,4,4.1,4,7.1l0,0
		c0,4.6-3.7,8.3-8.3,8.3C-529.6,415.5-533,412.4-533.6,408.4"/>
	<path class="st2" d="M-514.5,389.7c-1.5,0-2.6,1.2-2.6,2.6v0.7h8.6c2.2,0,4.1-1.4,4.9-3.3H-514.5z"/>
	<path class="st3" d="M-515.5,388.3"/>
	<path class="st4" d="M-522.2,407.7l-4.6,2.9c-0.1,0.1-0.2,0.1-0.3,0.1c-0.1,0-0.2,0-0.3-0.1c-0.2-0.1-0.3-0.3-0.3-0.5v-5.7
		c0-0.2,0.1-0.4,0.3-0.5c0.2-0.1,0.4-0.1,0.6,0l4.6,2.9c0.2,0.1,0.3,0.3,0.3,0.5C-521.9,407.4-522,407.6-522.2,407.7L-522.2,407.7z"
		/>
	<g>
		<path class="st4" d="M-500.7,411.2l6.5-7h-3.9v1.8h-2.6v-3.8h10.1v2.2l-6.4,6.8h3.9v-1.7h2.7v3.8h-10.3V411.2z"/>
		<path class="st4" d="M-489.3,409v-2.7c0-3.1,1.4-4.5,5.5-4.5c4.1,0,5.5,1.4,5.5,4.5v2.7c0,3.1-1.4,4.5-5.5,4.5
			C-488,413.5-489.3,412.1-489.3,409z M-481.6,408.8v-2.1c0-1.8-0.4-2.4-2.2-2.4c-1.9,0-2.2,0.6-2.2,2.4v2.1c0,1.9,0.4,2.4,2.2,2.4
			C-481.9,411.2-481.6,410.6-481.6,408.8z"/>
		<path class="st4" d="M-472.6,410.9h1.7v2.3h-6.5v-2.3h1.6v-6.3h-1.7v-2.4h4.4v1.7c0.3-1,1-1.8,2.5-1.8h1.7v2.6h-2
			c-1.4,0-1.7,1-1.7,3.1V410.9z"/>
		<path class="st4" d="M-463.4,410.9h1.7v2.3h-6.5v-2.3h1.6v-6.3h-1.7v-2.4l4.4,0v1.7c0.3-1,1-1.8,2.5-1.8h1.7v2.6h-2
			c-1.4,0-1.7,1-1.7,3.1V410.9z"/>
		<path class="st4" d="M-459.2,409v-2.7c0-3.1,1.4-4.5,5.5-4.5c4.1,0,5.5,1.4,5.5,4.5v2.7c0,3.1-1.4,4.5-5.5,4.5
			C-457.8,413.5-459.2,412.1-459.2,409z M-451.5,408.8v-2.1c0-1.8-0.4-2.4-2.2-2.4c-1.9,0-2.2,0.6-2.2,2.4v2.1
			c0,1.9,0.4,2.4,2.2,2.4C-451.8,411.2-451.5,410.6-451.5,408.8z"/>
	</g>
	<g>
		<path class="st4" d="M-442.1,413c-2.4,0-3-0.7-3-3v-7.2h-1.8V402h1.8v-3.1h1.1v3.1h2.7v0.9h-2.7v7.2c0,1.6,0.3,2,1.9,2h1.2v0.9
			H-442.1z"/>
		<path class="st4" d="M-430.7,413v-1.4c-0.5,1.1-1.4,1.6-3.6,1.6c-3.4,0-4.2-1.1-4.2-3.6v-6.8h-1.4V402h2.4v7.5
			c0,2.4,0.9,2.8,3.2,2.8c2.1,0,3.4-0.5,3.4-2.9v-6.4h-1.3V402h2.4v10.1h1.6v0.9H-430.7z"/>
		<path class="st4" d="M-427.2,413v-0.9h1.6v-9.2h-1.7V402h2.6v1.7c0.4-1.2,1.5-1.9,3.7-1.9c3.2,0,4,1.3,4,3.7v6.6h1.5v0.9h-4.2
			v-0.9h1.6v-6.6c0-2-0.8-2.7-3-2.7c-2.7,0-3.6,0.7-3.6,3.2v6.2h1.6v0.9H-427.2z"/>
		<path class="st4" d="M-414.2,408.5v-2c0-3.4,1-4.7,4.6-4.7c3.5,0,4.4,1.3,4.4,4v1.8h-7.9v1c0,3,0.7,3.7,3.5,3.7
			c2.7,0,3.4-0.5,3.4-2.1v-0.6h1v0.6c0,2.1-0.8,3.1-4.4,3.1C-413.2,413.2-414.2,411.9-414.2,408.5z M-413.1,406.6h6.9v-0.8
			c0-2.3-0.6-3-3.4-3c-2.9,0-3.5,0.8-3.5,3.7V406.6z"/>
		<path class="st4" d="M-403.6,410v-0.4h1v0.4c0,1.7,0.2,2.3,3,2.3c2.7,0,3.2-0.4,3.2-2.1v-0.3c0-1.3-0.7-1.7-2.4-1.9l-1.3-0.1
			c-2.4-0.2-3.4-0.9-3.4-2.9v-0.3c0-1.6,0.6-2.8,3.9-2.8c3.4,0,4,0.9,4,3v0.5h-1v-0.5c0-1.6-0.4-2.1-3-2.1c-2.4,0-2.8,0.5-2.8,1.8
			v0.3c0,1.3,0.6,1.7,2.4,1.9l1.3,0.1c2,0.2,3.4,0.8,3.4,2.9v0.3c0,2.1-0.7,3.1-4.2,3.1C-403.3,413.2-403.6,412.2-403.6,410z"/>
	</g>
</g>
</svg>
